{
  "accessors": [
    {
      "bufferView": 2,
      "componentType": 5126,
      "count": 41764,
      "max": [
        4.399943828582764,
        0.5271440148353577,
        2.101749897003174
      ],
      "min": [
        -2.290400981903076,
        -6.169684886932373,
        -3.2159030437469482
      ],
      "type": "VEC3"
    },
    {
      "bufferView": 2,
      "byteOffset": 501168,
      "componentType": 5126,
      "count": 41764,
      "max": [
        1.0,
        1.0,
        1.0
      ],
      "min": [
        -1.0,
        -1.0,
        -1.0
      ],
      "type": "VEC3"
    },
    {
      "bufferView": 3,
      "componentType": 5126,
      "count": 41764,
      "max": [
        1.0,
        0.9999971389770508,
        0.9999947547912598,
        1.0
      ],
      "min": [
        -1.0,
        -0.9999978542327881,
        -0.9999947547912598,
        -1.0
      ],
      "type": "VEC4"
    },
    {
      "bufferView": 1,
      "componentType": 5126,
      "count": 41764,
      "max": [
        0.9991589784622192,
        0.9792090058326721
      ],
      "min": [
        0.0008410000009462237,
        0.0008410000009462237
      ],
      "type": "VEC2"
    },
    {
      "bufferView": 0,
      "componentType": 5125,
      "count": 63120,
      "type": "SCALAR"
    }
  ],
  "asset": {
    "extras": {
      "author": "EsiHere (https://sketchfab.com/EsiHere)",
      "license": "CC-BY-4.0 (http://creativecommons.org/licenses/by/4.0/)",
      "source": "https://sketchfab.com/3d-models/campfire-with-pot-9ef57c8f32f04576990a3b9f145249b5",
      "title": "Campfire with Pot"
    },
    "generator": "Sketchfab-12.66.0",
    "version": "2.0"
  },
  "bufferViews": [
    {
      "buffer": 0,
      "byteLength": 252480,
      "name": "floatBufferViews",
      "target": 34963
    },
    {
      "buffer": 0,
      "byteLength": 334112,
      "byteOffset": 252480,
      "byteStride": 8,
      "name": "floatBufferViews",
      "target": 34962
    },
    {
      "buffer": 0,
      "byteLength": 1002336,
      "byteOffset": 586592,
      "byteStride": 12,
      "name": "floatBufferViews",
      "target": 34962
    },
    {
      "buffer": 0,
      "byteLength": 668224,
      "byteOffset": 1588928,
      "byteStride": 16,
      "name": "floatBufferViews",
      "target": 34962
    }
  ],
  "buffers": [
    {
      "byteLength": 2257152,
      "uri": "scene.bin"
    }
  ],
  "images": [
    {
      "uri": "textures/Material.001_baseColor.jpeg"
    },
    {
      "uri": "textures/Material.001_metallicRoughness.png"
    },
    {
      "uri": "textures/Material.001_normal.png"
    }
  ],
  "materials": [
    {
      "doubleSided": true,
      "name": "Material.001",
      "normalTexture": {
        "index": 2
      },
      "pbrMetallicRoughness": {
        "baseColorTexture": {
          "index": 0
        },
        "metallicRoughnessTexture": {
          "index": 1
        }
      }
    }
  ],
  "meshes": [
    {
      "name": "defaultMaterial",
      "primitives": [
        {
          "attributes": {
            "NORMAL": 1,
            "POSITION": 0,
            "TANGENT": 2,
            "TEXCOORD_0": 3
          },
          "indices": 4,
          "material": 0,
          "mode": 4
        }
      ]
    }
  ],
  "nodes": [
    {
      "children": [
        1
      ],
      "matrix": [
        0.0027135200798511505,
        0.0,
        0.0,
        0.0,
        0.0,
        6.025224940866881e-19,
        -0.0027135200798511505,
        0.0,
        0.0,
        0.0027135200798511505,
        6.025224940866881e-19,
        0.0,
        0.0,
        0.0,
        0.0,
        1.0
      ],
      "name": "Sketchfab_model"
    },
    {
      "children": [
        2
      ],
      "matrix": [
        1.0,
        0.0,
        0.0,
        0.0,
        0.0,
        -4.371139006309477e-08,
        0.999999999999999,
        0.0,
        0.0,
        -0.999999999999999,
        -4.371139006309477e-08,
        0.0,
        0.0,
        0.0,
        0.0,
        1.0
      ],
      "name": "Collada visual scene group"
    },
    {
      "children": [
        3
      ],
      "matrix": [
        108.114838,
        0.0,
        12.990847,
        0.0,
        11.906528,
        43.552757,
        -99.090721,
        0.0,
        -5.195832,
        99.80349,
        43.241718,
        0.0,
        252.626846,
        328.381409,
        442.994446,
        1.0
      ],
      "name": "Cylinder.001"
    },
    {
      "mesh": 0,
      "name": "defaultMaterial"
    }
  ],
  "samplers": [
    {
      "magFilter": 9729,
      "minFilter": 9987,
      "wrapS": 10497,
      "wrapT": 10497
    }
  ],
  "scene": 0,
  "scenes": [
    {
      "name": "Sketchfab_Scene",
      "nodes": [
        0
      ]
    }
  ],
  "textures": [
    {
      "sampler": 0,
      "source": 0
    },
    {
      "sampler": 0,
      "source": 1
    },
    {
      "sampler": 0,
      "source": 2
    }
  ]
}
